<svg width="1366" height="149" viewBox="0 0 1366 149" fill="none" xmlns="http://www.w3.org/2000/svg">
<path fill-rule="evenodd" clip-rule="evenodd" d="M1366 123.367C1347.5 120.692 1329.09 118.06 1310.99 115.475L1310.99 115.474L1310.99 115.474L1310.99 115.474C1278.27 110.799 1246.6 106.273 1217.39 101.913C1110.52 85.9553 998.866 77.2683 885.941 68.4823C824.929 63.7354 763.545 58.9595 702.343 52.9924C640.836 46.9957 577.857 38.5015 515.316 30.0663C395.552 13.9133 277.395 -2.02312 174.259 0.210262C75.035 2.35892 42.9722 20.647 10.2843 39.2917C6.88827 41.2287 3.48552 43.1696 0 45.0966V160H1366V123.367Z" fill="#DDDBF2" fill-opacity="0.26"/>
</svg>
