<svg width="1366" height="100" viewBox="0 0 1366 100" fill="none" xmlns="http://www.w3.org/2000/svg">
<path fill-rule="evenodd" clip-rule="evenodd" d="M1366 0H0V20.7896C79.0078 37.543 172.154 52.357 261.728 64.2602C372.218 78.9429 481.981 81.8895 592.365 84.8528C635.235 86.0037 678.199 87.1571 721.336 89.0015C749.929 90.2241 779.133 91.7798 808.302 93.3336C896.407 98.0271 984.192 102.703 1053.85 98.1287C1119.23 93.8345 1150.1 81.3856 1181.04 68.9128C1191.39 64.7369 1201.76 60.5585 1213.42 56.6824C1230.71 50.9391 1241.26 44.2229 1251.75 37.5397C1265.59 28.7266 1279.34 19.9708 1308.34 13.579C1324.57 10.0021 1344.23 7.01834 1366 4.41107V0Z" fill="#DDDBF2" fill-opacity="0.26"/>
</svg>
